<svg width="40" height="41" viewBox="0 0 40 41" fill="none" xmlns="http://www.w3.org/2000/svg">
<path d="M12 26C12 26.5304 12.2107 27.0391 12.5858 27.4142C12.9609 27.7893 13.4696 28 14 28H26C26.5304 28 27.0391 27.7893 27.4142 27.4142C27.7893 27.0391 28 26.5304 28 26V14C28 13.4696 27.7893 12.9609 27.4142 12.5858C27.0391 12.2107 26.5304 12 26 12H14C13.4696 12 12.9609 12.2107 12.5858 12.5858C12.2107 12.9609 12 13.4696 12 14V26ZM16.5 19.5H22.293L20.146 17.354C20.0521 17.2601 19.9994 17.1328 19.9994 17C19.9994 16.8672 20.0521 16.7399 20.146 16.646C20.2399 16.5521 20.3672 16.4994 20.5 16.4994C20.6328 16.4994 20.7601 16.5521 20.854 16.646L23.854 19.646C23.9006 19.6924 23.9375 19.7476 23.9627 19.8084C23.9879 19.8691 24.0009 19.9342 24.0009 20C24.0009 20.0658 23.9879 20.1309 23.9627 20.1916C23.9375 20.2524 23.9006 20.3076 23.854 20.354L20.854 23.354C20.7601 23.4479 20.6328 23.5006 20.5 23.5006C20.3672 23.5006 20.2399 23.4479 20.146 23.354C20.0521 23.2601 19.9994 23.1328 19.9994 23C19.9994 22.8672 20.0521 22.7399 20.146 22.646L22.293 20.5H16.5C16.3674 20.5 16.2402 20.4473 16.1464 20.3536C16.0527 20.2598 16 20.1326 16 20C16 19.8674 16.0527 19.7402 16.1464 19.6464C16.2402 19.5527 16.3674 19.5 16.5 19.5V19.5Z" fill="#699BF7"/>
<rect width="40" height="41" rx="5" fill="#005BFF"/>
<path d="M32.0607 21.0607C32.6464 20.4749 32.6464 19.5251 32.0607 18.9393L22.5147 9.3934C21.9289 8.80761 20.9792 8.80761 20.3934 9.3934C19.8076 9.97919 19.8076 10.9289 20.3934 11.5147L28.8787 20L20.3934 28.4853C19.8076 29.0711 19.8076 30.0208 20.3934 30.6066C20.9792 31.1924 21.9289 31.1924 22.5147 30.6066L32.0607 21.0607ZM9 21.5L31 21.5L31 18.5L9 18.5L9 21.5Z" fill="white"/>
</svg>
